<?xml version="1.0" encoding="UTF-8"?> <svg xmlns="http://www.w3.org/2000/svg" xmlns:xlink="http://www.w3.org/1999/xlink" version="1.1" id="Layer_1" x="0px" y="0px" viewBox="0 0 590 376" style="enable-background:new 0 0 590 376;" xml:space="preserve"> <style type="text/css"> .st0{fill:#CCDADE;} .st1{fill:#00455B;} .st2{fill:#00C878;} .st3{fill:#2D6135;} .st4{fill:#BFC6CD;} .st5{fill:#FFFFFF;} .st6{fill:#00B96E;} .st7{clip-path:url(#SVGID_00000064311607508018330020000017424449371659488932_);} .st8{fill:#DA4B30;} .st9{fill:#C2372A;} .st10{fill:#DB9777;} .st11{fill:#BF7554;} .st12{fill:#BF6147;} .st13{fill:#C69177;} .st14{fill:#A05638;} .st15{fill:#D07D64;} .st16{fill:#002029;} .st17{fill:#00313C;} .st18{fill:#B5603F;} .st19{fill:#004757;} .st20{fill:#B2C7CD;} .st21{fill:#668F9D;} .st22{fill:#B2D3D5;} .st23{clip-path:url(#SVGID_00000095321679660089604140000011508395684260206499_);} </style> <g id="a"> </g> <g> <circle class="st0" cx="87.3" cy="95.9" r="51.3"></circle> <path class="st1" d="M110.8,77.8c0.7,0,1.1,0.2,1.6,0.7c0.5,0.5,0.7,1,0.7,1.6v2.3c0,0.7-0.2,1.1-0.7,1.6c-0.5,0.5-1,0.7-1.6,0.7 v27.8c0,0.7-0.2,1.1-0.7,1.6s-1,0.7-1.6,0.7H88.7v3l6.7,6.7c0.1,0.1,0.2,0.2,0.2,0.4c0.1,0.2,0.1,0.3,0.1,0.5 c0,0.4-0.1,0.7-0.3,0.9s-0.6,0.4-0.9,0.4c-0.2,0-0.3,0-0.5-0.1c-0.2-0.1-0.3-0.2-0.4-0.3l-6.2-6.2l-6.2,6.2 c-0.1,0.1-0.2,0.2-0.4,0.2c-0.2,0.1-0.3,0.1-0.5,0.1c-0.4,0-0.7-0.1-0.9-0.3s-0.3-0.5-0.3-0.9c0-0.2,0-0.3,0.1-0.5 c0.1-0.2,0.1-0.3,0.2-0.4l6.7-6.6v-2.9H66.7c-0.7,0-1.1-0.2-1.6-0.7c-0.5-0.5-0.7-1-0.7-1.6V84.6c-0.7,0-1.1-0.2-1.6-0.7 s-0.7-1-0.7-1.6V80c0-0.7,0.2-1.1,0.7-1.6s1-0.7,1.6-0.7h20.9c0-0.7,0.2-1.1,0.7-1.6c0.5-0.5,1-0.7,1.6-0.7c0.6,0,1.1,0.2,1.6,0.7 c0.5,0.5,0.7,1,0.7,1.6L110.8,77.8L110.8,77.8L110.8,77.8z M110.8,82.4v-2.3H64.2v2.3H110.8C110.8,82.3,110.8,82.4,110.8,82.4z M108.4,84.7H66.7v27.8h41.7V84.7z M72,104.9c-0.5-0.5-0.7-1-0.7-1.6V91.6c0-0.7,0.2-1.1,0.7-1.6c0.5-0.5,1-0.7,1.6-0.7h9.3 c0.7,0,1.1,0.2,1.6,0.7c0.5,0.5,0.7,1,0.7,1.6v11.6c0,0.7-0.2,1.1-0.7,1.6c-0.5,0.5-1,0.7-1.6,0.7h-9.3 C73.1,105.6,72.5,105.3,72,104.9z M73.6,103.2h9.3V91.6h-9.3V103.2z M90.2,91.4c-0.2-0.2-0.3-0.5-0.3-0.9c0-0.4,0.1-0.7,0.3-0.9 c0.2-0.2,0.5-0.3,0.9-0.3h6.9c0.4,0,0.7,0.1,0.9,0.3s0.3,0.5,0.3,0.9c0,0.4-0.1,0.7-0.3,0.9c-0.2,0.2-0.5,0.3-0.9,0.3H91 C90.7,91.6,90.4,91.6,90.2,91.4z M90.2,95.9c-0.2-0.2-0.3-0.5-0.3-0.9c0-0.4,0.1-0.7,0.3-0.9c0.2-0.2,0.5-0.3,0.9-0.3h11.6 c0.4,0,0.7,0.1,0.9,0.3c0.2,0.2,0.3,0.5,0.3,0.9c0,0.4-0.1,0.7-0.3,0.9c-0.2,0.2-0.5,0.3-0.9,0.3H91C90.7,96.3,90.4,96.2,90.2,95.9 z M90.2,100.6c-0.2-0.2-0.3-0.5-0.3-0.9s0.1-0.7,0.3-0.9c0.2-0.2,0.5-0.3,0.9-0.3h4.7c0.4,0,0.7,0.1,0.9,0.3 c0.2,0.2,0.3,0.5,0.3,0.9s-0.1,0.7-0.3,0.9c-0.2,0.2-0.5,0.3-0.9,0.3H91C90.7,101,90.4,100.9,90.2,100.6z M90.2,105.2 c-0.2-0.2-0.3-0.5-0.3-0.9c0-0.4,0.1-0.7,0.3-0.9c0.2-0.2,0.5-0.3,0.9-0.3h11.6c0.4,0,0.7,0.1,0.9,0.3c0.2,0.2,0.3,0.5,0.3,0.9 c0,0.4-0.1,0.7-0.3,0.9c-0.2,0.2-0.5,0.3-0.9,0.3H91C90.7,105.5,90.4,105.4,90.2,105.2z"></path> </g> <g> <path class="st2" d="M185.9,92.7c-4-3.5-10.6-9.9-15.8-10.3c-1.5-0.1-2.2,0.8-1.6,1.4c0,0.1,0.1,0.1,0.1,0.2 c4.4,3.7,9.3,9.8,13.8,15.2C182.4,99.2,184.7,94.4,185.9,92.7z"></path> <path class="st2" d="M211.8,71.3c-7.6,5-13.4,9.6-20.6,19.4c-4,5.6-6.6,11.1-6.6,11.2c-0.1,0.2,0,0.3,0.1,0.5 c0.1,0.1,0.2,0.3,0.3,0.3c0.9,0,8.3,0,8.3,0c0.1-0.2,0.3-0.3,0.4-0.5c4.8-11,11.2-18,19.6-26.1c1.5-1.5,3.1-2.9,4.7-4.4 C216.6,69.6,213.7,70.1,211.8,71.3L211.8,71.3z"></path> </g> <g> <path class="st2" d="M109.9,205.7c-4-3.5-10.6-9.9-15.8-10.3c-1.6-0.1-2.2,0.8-1.6,1.4c0,0.1,0.1,0.1,0.1,0.1 c4.4,3.7,9.3,9.8,13.8,15.2C106.5,212.2,108.7,207.5,109.9,205.7z"></path> <path class="st2" d="M135.9,184.4c-7.6,5-13.4,9.6-20.6,19.4c-4,5.6-6.6,11.1-6.6,11.2c-0.1,0.2,0,0.3,0.1,0.5 c0.1,0.1,0.2,0.3,0.3,0.3c0.9,0,8.3,0,8.3,0c0.2-0.2,0.3-0.4,0.3-0.5c4.8-11,11.2-18,19.6-26.1c1.5-1.5,3.1-2.9,4.7-4.4 C140.6,182.8,137.7,183.1,135.9,184.4L135.9,184.4z"></path> </g> <path class="st3" d="M295.9,89.8c-0.2-1.1-1.2-1.9-2.3-1.7c-35.1,4.9-67.4,20.2-93.7,44.1c-0.1,0-0.2,0-0.3,0l-16.5,4 c-1.1,0.3-1.8,1.4-1.5,2.5c0.3,1,1.4,1.8,2.5,1.5l9.9-2.4c-25.5,25.5-42.4,57.5-48.8,92.8c-0.2,1.1,0.6,2.2,1.6,2.4 c0.1,0,0.3,0,0.4,0c0.9,0,1.8-0.7,2-1.7c6.3-34.4,22.7-65.6,47.4-90.4l-1.9,9.5c-0.2,1.1,0.5,2.2,1.6,2.5c0.1,0,0.3,0,0.4,0 c0.9,0,1.8-0.7,2-1.7l3.1-15.4c25.7-23.8,57.6-38.9,92.2-43.8C295.3,92,296.1,91,295.9,89.8L295.9,89.8z"></path> <path class="st4" d="M489.1,211.7c-1,0-2.2,0.1-3.2,0.3c-0.9-2.8-1.7-5.6-2.8-8.3l3-16.2c0.2-1.1-0.6-2.2-1.7-2.5 c-1.1-0.3-2.2,0.6-2.5,1.7l-1.8,9.6c-11.1-27.3-28.8-51.1-51.1-69.5c1.5-2.7,2.4-5.8,2.4-9.1c0-10.3-8.4-18.6-18.6-18.6 c-6,0-11.3,2.9-14.6,7.2c-1.8-0.9-3.5-1.8-5.3-2.7c0-0.3-0.2-0.6-0.3-0.8l-9.6-14c-0.7-0.9-1.9-1.1-2.9-0.6c-1,0.7-1.1,2-0.6,2.8 l6.4,9.3c-12.1-5.1-24.9-9-38.2-11.4c-1.1-0.2-2.2,0.6-2.4,1.7c-0.2,1.1,0.6,2.2,1.7,2.4c12.2,2.2,23.9,5.6,35.1,10.2l-8.5,1.4 c-1.1,0.2-1.9,1.2-1.7,2.4c0.2,1,1,1.7,2.1,1.7c0.1,0,0.2,0,0.4,0l14.7-2.5c2.4,1,4.7,2.2,6.9,3.4c-1.1,2.4-1.8,5-1.8,7.9 c0,10.3,8.4,18.6,18.6,18.6c5.5,0,10.4-2.4,13.8-6.2c21.8,18.1,39,41.3,49.8,67.9l-8.2-5.9c-0.9-0.7-2.3-0.5-2.9,0.5 c-0.7,0.9-0.5,2.3,0.5,2.9l13.3,9.6c0.9,2.7,1.8,5.3,2.7,8.1c-6.7,2.8-11.4,9.4-11.4,17.2c0,10.3,8.4,18.6,18.6,18.6 s18.6-8.4,18.6-18.6C507.8,220.2,499.4,211.7,489.1,211.7L489.1,211.7z"></path> <path class="st5" d="M420.8,119c-0.9-1-2.2-1.5-3.8-1.7v-0.2c1.3-0.2,2.3-0.8,3.1-1.6c0.9-0.9,1.2-1.9,1.1-3.2 c0-1.2-0.3-2.3-0.9-3.2c-0.7-1-1.6-1.7-2.8-2.3c-1.1-0.6-2.6-0.9-4.2-0.9s-2.9,0.3-4.2,0.9s-2.2,1.3-2.9,2.4c-0.8,1-1.1,2.2-1.1,3.5 h4.7c0-0.6,0.2-1,0.5-1.5c0.3-0.4,0.8-0.8,1.3-1s1.1-0.4,1.8-0.4c0.7,0,1.2,0.1,1.7,0.4s0.9,0.6,1.1,1c0.3,0.5,0.4,0.9,0.4,1.5 s-0.2,1.1-0.5,1.6c-0.3,0.5-0.8,0.8-1.3,1c-0.6,0.3-1.2,0.4-1.9,0.4h-2.1v3.5h2.1c0.9,0,1.6,0.1,2.3,0.4c0.7,0.3,1.1,0.7,1.4,1.1 c0.3,0.5,0.5,1,0.5,1.6c0,0.6-0.2,1.1-0.5,1.6c-0.3,0.5-0.8,0.9-1.3,1c-0.6,0.3-1.2,0.4-1.9,0.4s-1.3-0.1-1.9-0.4 c-0.6-0.2-1-0.6-1.3-0.9c-0.3-0.4-0.5-0.9-0.6-1.4h-4.8c0,1.3,0.4,2.5,1.1,3.5c0.8,1,1.8,1.8,3,2.4c1.2,0.6,2.8,0.9,4.5,0.9 s3.2-0.3,4.6-0.9c1.3-0.6,2.4-1.3,3.1-2.4s1.1-2.2,1.1-3.5C422.2,121.1,421.7,120,420.8,119L420.8,119z"></path> <path class="st5" d="M497.2,232.7h-2.9v-14.9h-6.1l-9.5,15v3.8h10.9v4h4.7v-4h2.9V232.7L497.2,232.7z M483.6,232.5l6-9.5h0.2v9.7 h-6.2V232.5L483.6,232.5z"></path> <circle class="st6" cx="224.1" cy="117.7" r="18.6"></circle> <path class="st5" d="M223.2,124.3v-0.2l3.3-3.2c1.5-1.4,2.8-2.7,3.6-3.7s1.4-2,1.8-2.8c0.4-0.9,0.5-1.7,0.5-2.6c0-1.3-0.4-2.5-1-3.5 c-0.7-1-1.6-1.8-2.8-2.4s-2.7-0.9-4.3-0.9c-1.6,0-2.9,0.3-4.2,0.9c-1.2,0.6-2.2,1.4-2.8,2.6c-0.7,1.1-1,2.4-1,3.9h4.6 c0-0.8,0.1-1.3,0.4-1.9c0.3-0.6,0.7-0.9,1.2-1.2s1.1-0.4,1.8-0.4s1.2,0.1,1.8,0.4s0.9,0.7,1.2,1.1c0.3,0.5,0.5,1,0.5,1.7 c0,0.6-0.1,1.1-0.4,1.7c-0.3,0.5-0.6,1-1,1.6c-0.5,0.6-1,1.1-1.7,1.8l-8.2,7.5v3.5h16.2v-4H223.2L223.2,124.3z"></path> <circle class="st6" cx="147.6" cy="230.3" r="18.6"></circle> <polygon class="st5" points="146.9,218.8 141.2,222.3 141.2,226.6 146.5,223.3 146.6,223.3 146.6,241.6 151.4,241.6 151.4,218.8 "></polygon> <g> <g> <g> <g> <g> <defs> <rect id="SVGID_1_" x="182.4" y="141.4" width="254.7" height="192"></rect> </defs> <clipPath id="SVGID_00000162348541730030755630000009215474593520209590_"> <use xlink:href="#SVGID_1_" style="overflow:visible;"></use> </clipPath> <g style="clip-path:url(#SVGID_00000162348541730030755630000009215474593520209590_);"> <g> <path class="st1" d="M208.8,365.7h30.4c2.8,0,5,2.3,5,5V461c0,2.8-2.3,5-5,5h-30.4c-2.8,0-5-2.3-5-5v-90.2 C203.7,368,206,365.7,208.8,365.7z"></path> <path class="st8" d="M205.8,443.3v-67.3c0-5.2,4.3-9.4,9.6-9.4h22c1.4,0,2.8,0.3,4.1,0.9c-0.4-4.8-4.6-8.7-9.6-8.7h-22 c-5.3,0-9.6,4.3-9.6,9.4v67.3c0,3.8,2.3,7,5.5,8.5C205.8,443.8,205.8,443.6,205.8,443.3L205.8,443.3z"></path> <path class="st0" d="M339.9,237.5h-68.5c-15.8,0-28.5,12.7-28.5,28.5v169.4h125.6V266C368.5,250.2,355.7,237.5,339.9,237.5z"></path> <path class="st9" d="M305.2,342.4c-19.8,0-35.9-16.1-35.9-35.9s16.1-35.9,35.9-35.9c19.8,0,35.9,16.2,35.9,35.9 S325,342.4,305.2,342.4z M305.2,273.3c-18.3,0-33.2,14.9-33.2,33.2s14.9,33.2,33.2,33.2s33.2-14.9,33.2-33.2 S323.6,273.3,305.2,273.3z"></path> <path class="st8" d="M281,237.5v4.8c0,10.4,7.8,18.7,17.5,18.7h12c9.6,0,17.5-8.4,17.5-18.7v-4.8H281L281,237.5z"></path> <path class="st10" d="M286.6,237.5v5.7c0,7.3,6,13.3,13.3,13.3h9.2c7.3,0,13.3-6,13.3-13.3v-5.7L286.6,237.5L286.6,237.5z"></path> <path class="st10" d="M295.7,192.1h17.4c3.2,0,5.8,2.6,5.8,5.8v46c0,3.2-2.6,5.8-5.8,5.8h-17.4c-3.2,0-5.8-2.6-5.8-5.8v-46 C290,194.7,292.6,192.1,295.7,192.1z"></path> <path class="st11" d="M304.5,191.5L304.5,191.5c-8,0-14.4,4.1-14.4,9V240c0,0.9,0,1.1,0.1,1.5c1.6,1.4,11.2-1.7,13.7-2.7 c10.2-3.9,15.2-7.5,15.2-12.4v-25.9C319,195.6,312.5,191.5,304.5,191.5L304.5,191.5z"></path> <path class="st12" d="M319.8,200.3c-0.4-3.9,1.5-7.2,4.3-7.5c2.8-0.3,5.9,0.1,5.7,6.5c-0.1,4.1-1.5,7.2-4.3,7.5 C322.7,207.1,320.1,204.1,319.8,200.3z"></path> <path class="st12" d="M284,203.8c-0.4-3.9-2.9-6.7-5.7-6.5c-2.8,0.3-5.7,1.2-4.3,7.5c1,4,2.9,6.7,5.7,6.5 C282.5,211.1,284.4,207.7,284,203.8z"></path> <path class="st10" d="M310.3,231.9l-11.1,1.1c-8.5,0.9-17.8-5.6-18.9-13l-2.3-34.3c-1.8-18.1,3.7-22.5,12.7-23.4l13.8-1.3 c9-0.9,15.6,3.3,17.2,19.6l4.9,36.2C326.9,224.3,318.7,231,310.3,231.9L310.3,231.9z"></path> <path class="st13" d="M279.3,205.7l1,14.2c1.1,7.4,10.4,13.9,18.9,13l11.1-1.1c8.5-0.9,16.6-7.6,16.3-15.1l-2.1-15.5 L279.3,205.7L279.3,205.7z"></path> <path class="st14" d="M303.5,214.5c-2.7,0.9-4.8,0.7-6.1-0.6c0.4,0.8,0.1-0.1,0.2,0.3c0.7,2,3.5,3.7,6.6,2.7 c3.1-1,4.7-5.1,4-7.1c-0.1-0.4,0,0.2-0.3-0.1C307.9,211.4,306.2,213.6,303.5,214.5L303.5,214.5z"></path> <ellipse transform="matrix(0.9951 -9.913554e-02 9.913554e-02 0.9951 -19.1905 29.6642)" class="st15" cx="288.9" cy="207.9" rx="5" ry="5"></ellipse> <ellipse transform="matrix(0.9951 -9.913556e-02 9.913556e-02 0.9951 -18.7261 32.3603)" class="st15" cx="316.3" cy="204.6" rx="5" ry="5"></ellipse> <path class="st16" d="M311.9,185.6c-0.2,0-0.3,0-0.5-0.2c-3.1-2.6-5.6,0.5-5.6,0.6c-0.4,0.5-0.9,0.4-1.1-0.2 c-0.3-0.6-0.3-1.3,0-1.8c0.1-0.2,3.2-4.2,7.4-0.8c0.4,0.4,0.6,1.1,0.4,1.7C312.4,185.3,312.1,185.6,311.9,185.6L311.9,185.6z "></path> <path class="st16" d="M294.8,188.7c-0.2,0-0.3,0-0.5-0.2c-3.1-2.6-5.6,0.5-5.6,0.6c-0.4,0.5-0.9,0.4-1.1-0.2s-0.3-1.3,0-1.8 c0.1-0.2,3.2-4.2,7.4-0.8c0.4,0.4,0.6,1.1,0.4,1.7C295.3,188.5,295,188.7,294.8,188.7L294.8,188.7z"></path> <circle class="st17" cx="310.8" cy="192.8" r="1.7"></circle> <circle class="st17" cx="293.5" cy="194.5" r="1.8"></circle> <path class="st9" d="M323.8,195.3c0,0-0.2-26.1-4.8-33.2s-7-0.9-7-0.9S321.4,176.7,323.8,195.3L323.8,195.3z"></path> <path class="st9" d="M278.9,199.7c0,0-4.8-25.6-1.7-33.5c3.1-7.9,6.7-2.3,6.7-2.3S277.6,180.9,278.9,199.7L278.9,199.7z"></path> <path class="st16" d="M276.1,176.2c-3.5-1.8-6.2-4.9-6.6-9.1c-0.8-8.3,3.2-16.1,10.9-19.8c3.6-1.7,7.7-2.3,11.6-1.7 c4.2,0.6,7.2,3.4,11.2,4.2c4.8,0.9,9.1-0.4,13.4,2.9c3.2,2.5,5.1,6.6,5.1,10.6c0,3.1-0.5,3.3-3.4,4.2 c-5.5,1.6-11.3,1.4-16.8,2.8c-4.8,1.2-8.3,5.7-13.2,7.2C284.5,178.7,279.9,178.2,276.1,176.2L276.1,176.2z"></path> <path class="st16" d="M302.5,209.1c-0.8-0.2-7.2-1.8-10.5,5.3C291.9,214.4,296.5,216.1,302.5,209.1c9.3,3,12-1,12-1 C307.2,203.3,302.5,209.1,302.5,209.1z"></path> <path class="st16" d="M304.1,217.9c0,0-3.3,2.9,0.9,8.4C305,226.3,308,220.3,304.1,217.9z"></path> <path class="st9" d="M305.2,333.7c-15,0-27.2-12.2-27.2-27.2s12.2-27.2,27.2-27.2c15,0,27.2,12.2,27.2,27.2 S320.2,333.7,305.2,333.7z M305.2,284.7c-12.1,0-21.9,9.9-21.9,21.9s9.9,21.9,21.9,21.9c12.1,0,21.9-9.9,21.9-21.9 S317.3,284.7,305.2,284.7z"></path> <path class="st9" d="M276.1,237.4c-1-0.4-2.4-0.4-3.9-0.4c-7.2,0-23.8-1-34.7,8.8c-10.8,9.9-26.9,35.7-26.9,35.7l32.1,23.4 c0,0,0.2-0.2,0.6-0.5C244.9,276.4,251.7,238.6,276.1,237.4L276.1,237.4z"></path> <path class="st18" d="M305.6,204.2c0-0.1,0-0.1,0-0.2l-2.5-7.6c-0.1-1.1-1.1-2-2.3-1.8l0,0c-1.1,0.1-2,1.1-1.9,2.3l-0.9,7.9 c0,0.1,0,0.1,0.1,0.2c-0.8,0.4-1.2,1.1-1.1,2.1l0,0c0.1,1.1,1.1,2,2.3,1.9l6-0.6c1.1-0.1,2-1.1,1.9-2.3l0,0 C307,205.2,306.4,204.4,305.6,204.2L305.6,204.2z"></path> <path class="st9" d="M373.7,245.8c-6.6-6.2-19.1-9.4-27.3-9c0,0-6.1,0.1-10.4,0.6c12.8,6.9,31.4,44.2,32.7,67.4l31.7-23.2 C400.5,281.6,384.5,255.7,373.7,245.8L373.7,245.8z"></path> <path class="st8" d="M368.1,298.7l0.5,6.4l31.5-23c0,0-1.1-1.9-4.2-6.4L368.1,298.7L368.1,298.7z"></path> <path class="st8" d="M243.7,299.9l-0.5,6.2l-33.4-23.5c0,0,1.1-1.9,4.2-6.4L243.7,299.9L243.7,299.9z"></path> <path class="st19" d="M325,192c-0.1-0.4-0.5-0.6-0.9-0.6l-5.8,1.3c-1.2-3.4-4.7-5.6-8.4-5.2c-2.2,0.2-4.1,1.2-5.4,2.9 c-1.1,1.4-1.8,3.1-1.8,4.9c-0.4-0.6-1.1-0.9-1.8-0.8l0,0c-0.6,0.1-1,0.4-1.4,0.8c-1-3.8-4.7-6.4-8.6-6 c-3.7,0.4-6.6,3.2-7.1,6.7l-6.2,0.2c-0.4,0-0.7,0.4-0.7,0.8c0,0.4,0.3,0.7,0.7,0.7l0,0l6-0.2c0,0.3,0,0.5,0,0.8 c0.2,2.2,1.2,4.1,2.9,5.4c1.4,1.2,3.2,1.8,5.1,1.8c0.3,0,0.6,0,0.9,0c2.2-0.2,4.1-1.2,5.4-2.9c0.2-0.3,0.4-0.6,0.6-0.9 c0.2-1.2,0.7-3.7,0.8-4c0.1-0.4,0.5-0.9,0.5-0.9v-0.2l0.1,0.2c0.4-0.4,0.9-0.7,1.3-0.8c0.6-0.1,1.2,0.2,1.7,0.6 c0,0.1,0,0.1,0,0.2c0.4,0.4,0.7,0.9,0.8,1.1c0.1,0.1,0.5,1.4,0.9,2.6c0.4,0.4,0.8,0.9,1.1,1.1c1.4,1.2,3.2,1.8,5.1,1.8 c0.3,0,0.6,0,0.9,0c2.2-0.2,4.1-1.2,5.4-2.9c1.3-1.7,2-3.8,1.8-5.9c0-0.2-0.1-0.5-0.1-0.7l5.7-1.2 C324.8,192.7,325.1,192.3,325,192L325,192z M296.9,201.7c-1.1,1.3-2.8,2.3-4.6,2.5c-1.8,0.2-3.5-0.4-4.9-1.5 c-1.4-1.1-2.3-2.8-2.4-4.6c-0.4-3.7,2.3-6.9,6-7.3c0.2,0,0.5,0,0.7,0c3.4,0,6.3,2.6,6.6,6C298.5,198.6,298,200.3,296.9,201.7 L296.9,201.7z M316,199.8c-1.1,1.3-2.8,2.3-4.6,2.5s-3.5-0.4-4.9-1.5c-1.4-1.1-2.3-2.8-2.4-4.6s0.4-3.5,1.5-4.9 c1.1-1.3,2.8-2.3,4.6-2.5c3.7-0.4,6.9,2.3,7.3,6C317.7,196.6,317.1,198.4,316,199.8L316,199.8z"></path> <path class="st1" d="M280.7,323.4l-16.1-3.3c-2.3-0.5-3.9-2.6-3.8-4.9l2.4-46.8c0.2-2.9,2.9-5,5.8-4.5l16.1,3.3 c2.3,0.5,3.9,2.6,3.8,4.9l-2.4,46.8C286.3,321.8,283.6,324,280.7,323.4L280.7,323.4z"></path> <path class="st1" d="M280.7,323.4l-16.1-3.3c-2.3-0.5-3.9-2.6-3.8-4.9l2.4-46.8c0.2-2.9,2.9-5,5.8-4.5l16.1,3.3 c2.3,0.5,3.9,2.6,3.8,4.9l-2.4,46.8C286.3,321.8,283.6,324,280.7,323.4L280.7,323.4z"></path> <ellipse transform="matrix(0.9963 -8.560108e-02 8.560108e-02 0.9963 -22.0844 23.9206)" class="st5" cx="267.9" cy="269.5" rx="1.4" ry="1.8"></ellipse> <path class="st10" d="M408.8,235c-0.8-1.7-1.4-3.2-2.2-4.5c0.1-6.2,0.2-14.7-0.5-16.5c-1-2.9-3.3-9-3.3-9 c-0.7-1.8-2.7-2.8-4.6-2.1l-2.6,1c0,0-2-2.9-3.9-2.2c-1.5,0.6-3.8,1.4-3.8,1.4s-1.8-3.2-4.2-2.5c-2.3,0.9-5.2,1.9-5.2,1.9 s-1.6-4.4-2.9-7.9s-2.9-4.7-5.3-3.8s-1.4,4.2-0.9,5.8c0.6,1.5,8.5,23.6,8.5,23.6s-4-2.8-5.9-4c-1.9-1.2-3.4-1.2-5.2,0.7 c-1.8,1.9-0.1,3.7,0.7,4.5c0.6,0.6,14.3,12.3,19.4,16.7c0.1,0.9,0.4,1.9,0.6,2.9c0.7,2.5,1.6,5.3,2.7,8.4 c0.1,8.1-6.6,29.9-6.8,44.7l-14.1,10.3c4.4,9.7,12.8,23.6,22.1,22.8C448.5,322.5,409.3,236.1,408.8,235L408.8,235z"></path> <path class="st1" d="M385.7,239.3l22.8-8.3c0.4-0.1,0.9,0.1,0.9,0.5l2.9,7.9c0.1,0.4-0.1,0.9-0.5,1l-22.8,8.3 c-0.4,0.1-0.9-0.1-1-0.5l-2.9-7.9C385.1,239.8,385.3,239.4,385.7,239.3z"></path> <polygon class="st1" points="262.8,276.8 261.6,297.3 274.2,294 271.7,284 "></polygon> <path class="st10" d="M297.5,297.4c-1.7-0.9-3.9-0.4-4.9,1.3c-3,5.2-6.8,7.9-9.5,9c-0.2-0.5-0.3-0.9-0.6-1.2 c4.4-2.3,8.1-5.7,10.8-9.8c1.1-1.6,0.7-3.9-1-4.9s-3.9-0.7-4.9,1c-4.3,6.4-11,10-18.7,9.6c-2.3-0.1-4.6-0.9-6.1-2.4 c-0.7-0.7-0.9-1-1.1-2c0.1-0.5,0-1.7,0-1.7l0.8-12.5c-0.9,0-2,0.3-2.7,1c-6,6.1-10,15.5-9.3,24.1c0.1,0.9,0.2,1.9,0.4,2.8 c-6.5,1.6-10-0.1-17,1.9c0.1-0.2,0.1-0.3,0.2-0.5c1.3-3.3,3.3-6.6,5.6-9.5l-27.3-19.2c-0.7,1.1-1.4,2.3-2.1,3.5 c-0.1,0-1.3,2.3-1.8,3.4c-2.7,5.1-5,10.8-6.5,16.6c-3.5,11.5-5,23.8-1.9,34.9c1.3,4.9,5.1,8.8,10.1,10.3 c0.5,0.1,1,0.3,1.6,0.4c7.4,1.5,26.1,1.3,64.5-20.2c1.3-0.8,2.5-1.6,3.4-2.7c0.8-0.2,1.4-0.5,2.1-0.8h0.1 c7.5-3.6,13.1-9.2,15.9-17.2c0.7-1.9-0.4-3.9-2.2-4.6c-0.1,0-0.3-0.1-0.4-0.1c1.4-1.5,2.8-3.3,4-5.5 C299.9,300.6,299.2,298.5,297.5,297.4L297.5,297.4z M290,312.1c-0.4,1-0.9,1.9-1.4,2.8c-0.5-0.4-1-0.7-1.3-1 C288.1,313.4,289.1,312.8,290,312.1L290,312.1z"></path> </g> </g> </g> </g> </g> </g> </g> <path class="st20" d="M436.6,334.2H170.2c-0.3,0-0.5-0.3-0.5-0.7c0-0.4,0.2-0.7,0.5-0.7h266.4c0.3,0,0.5,0.3,0.5,0.7 C437.1,333.9,436.9,334.2,436.6,334.2z"></path> <g> <path class="st8" d="M341.7,109.8h-42.3c-3.6,0-5.9-3.9-4.1-7l20-35.9c1.7-3.1,6.2-3.2,8.1-0.2l22.3,35.9 C347.7,105.8,345.4,109.8,341.7,109.8z"></path> <path class="st5" d="M338.6,105h-35.9c-1.2,0-2.1-1.3-1.4-2.5l16.9-30.5c0.6-1.1,2.2-1.1,2.9-0.1l19,30.5 C340.7,103.6,339.8,105,338.6,105L338.6,105z"></path> <g> <polygon class="st17" points="322,97.3 317.7,97.3 316.1,79.8 323.4,79.8 "></polygon> <rect x="317.2" y="99.4" class="st17" width="5.2" height="3.9"></rect> </g> </g> <g id="f"> </g> <path class="st0" d="M437,278.7h45.4c3.4,0,6.1,2.7,6.1,6.1v51c0,3.4-2.7,6.1-6.1,6.1H437c-3.4,0-6.1-2.7-6.1-6.1v-51 C430.9,281.4,433.7,278.7,437,278.7z"></path> <path class="st21" d="M439.8,305.3h39.6c0.5,0,0.9,0.4,0.9,0.9v0.4c0,0.5-0.4,0.9-0.9,0.9h-39.6c-0.5,0-0.9-0.4-0.9-0.9v-0.4 C438.9,305.8,439.4,305.3,439.8,305.3z"></path> <path class="st21" d="M439.8,314.1h39.6c0.5,0,0.9,0.4,0.9,0.9v0.4c0,0.5-0.4,0.9-0.9,0.9h-39.6c-0.5,0-0.9-0.4-0.9-0.9V315 C438.9,314.6,439.4,314.1,439.8,314.1z"></path> <path class="st21" d="M439.8,323H476c0.5,0,0.9,0.4,0.9,0.9v0.4c0,0.5-0.4,0.9-0.9,0.9h-36.3c-0.5,0-0.9-0.4-0.9-0.9v-0.4 C438.9,323.4,439.3,323,439.8,323z"></path> <path class="st21" d="M439.8,331.7H476c0.5,0,0.9,0.4,0.9,0.9v0.4c0,0.5-0.4,0.9-0.9,0.9h-36.3c-0.5,0-0.9-0.4-0.9-0.9v-0.4 C438.9,332.1,439.3,331.7,439.8,331.7z"></path> <g> <polygon class="st0" points="468.2,321.2 470.5,324.2 477.8,321.4 472.7,314.3 "></polygon> <polygon class="st6" points="506.8,299.1 477.7,321.5 472.6,314.4 501.8,292.1 "></polygon> <path class="st1" d="M468.3,320.6l-3.1,4.8c-0.4,0.6,0.2,1.2,0.9,1l5.2-2.1L468.3,320.6L468.3,320.6z"></path> <path class="st22" d="M510.6,296.4l-2.8,2.1l-5.2-6.9l2.8-2.1c1.4-1.1,3.4-0.8,4.5,0.6l1.3,1.8C512.3,293.2,512,295.2,510.6,296.4 L510.6,296.4z"></path> <polygon class="st20" points="508.8,297.6 506.2,299.6 501.2,292.7 503.7,290.7 "></polygon> <polygon class="st21" points="508.8,297.6 506.2,299.6 503.9,296.4 506.3,294.4 "></polygon> </g> <g> <polygon class="st21" points="474.9,286.4 476.8,290.2 481.1,290.9 478,293.8 478.7,298 474.9,296 471.2,298 471.9,293.8 468.8,290.9 473,290.2 "></polygon> <polygon class="st6" points="445.8,286.4 447.7,290.2 452,290.8 448.9,293.8 449.6,298 445.8,296 442,298 442.8,293.8 439.8,290.8 443.9,290.2 "></polygon> <polygon class="st6" points="460.4,286.4 462.3,290.2 466.4,290.8 463.5,293.8 464.2,298 460.4,296 456.7,298 457.3,293.8 454.3,290.8 458.5,290.2 "></polygon> <g> <g> <g> <g> <g> <defs> <rect id="SVGID_00000135666642283719698280000004059707878737571991_" x="467.4" y="286" width="7.6" height="13.9"></rect> </defs> <clipPath id="SVGID_00000029037941747840455290000001976161319234539139_"> <use xlink:href="#SVGID_00000135666642283719698280000004059707878737571991_" style="overflow:visible;"></use> </clipPath> <g style="clip-path:url(#SVGID_00000029037941747840455290000001976161319234539139_);"> <polygon class="st6" points="475,286.4 476.9,290.2 481.1,290.8 478,293.8 478.7,298 475,296 471.2,298 472,293.8 468.8,290.8 473.1,290.2 "></polygon> </g> </g> </g> </g> </g> </g> </g> </svg> 